<svg id="hamburger-menu" xmlns="http://www.w3.org/2000/svg" width="35.7" height="20.6" viewBox="0 0 35.7 20.6">
  <g id="Group_3009" data-name="Group 3009">
    <g id="Group_3008" data-name="Group 3008">
      <path id="Path_5262" data-name="Path 5262" d="M34.2,3H1.5A1.538,1.538,0,0,1,0,1.5,1.538,1.538,0,0,1,1.5,0H34.2a1.538,1.538,0,0,1,1.5,1.5A1.473,1.473,0,0,1,34.2,3Z" fill="#134c83"/>
      <path id="Path_5263" data-name="Path 5263" d="M34.2,11.8H1.5a1.5,1.5,0,1,1,0-3H34.2a1.538,1.538,0,0,1,1.5,1.5A1.473,1.473,0,0,1,34.2,11.8Z" fill="#134c83"/>
      <path id="Path_5264" data-name="Path 5264" d="M34.2,20.6H1.5a1.5,1.5,0,0,1,0-3H34.2a1.538,1.538,0,0,1,1.5,1.5A1.473,1.473,0,0,1,34.2,20.6Z" fill="#134c83"/>
    </g>
  </g>
</svg>
