<svg xmlns="http://www.w3.org/2000/svg" width="43.266" height="60.057">
    <path data-name="1200px-Kharazmy_University_logo" d="M762.967 247q3.334 2.035 6.672 4.062 3.2-1.941 6.392-3.889c.073-.057.181-.085.224-.174h.022a4.014 4.014 0 0 1 .032.715v9.233a35.624 35.624 0 0 1 7.6-2.043c.01 2.851 0 5.7 0 8.552a37.565 37.565 0 0 1 7.356-.681v30.771h-7.355v10.447l-9.115-5.054q-2.376 3.776-4.77 7.542c-.121.188-.244.377-.349.576h-.066q-2.554-4.065-5.141-8.115-4.552 2.534-9.113 5.056v-10.449H748v-30.77a37.545 37.545 0 0 1 7.356.679v-8.547a35.206 35.206 0 0 1 7.61 2.037V247zm1.505 2.778v9.616a34.989 34.989 0 0 0-7.61-2.625v8.723a38.13 38.13 0 0 0-7.356-1.119v27.671h7.356v9.364c2.542-1.4 5.073-2.811 7.61-4.216l5.168 7.993c1.737-2.656 3.435-5.344 5.181-7.995 2.521 1.422 5.063 2.808 7.588 4.223.011-3.123 0-6.247 0-9.37h7.356c-.01-9.223.012-18.448-.011-27.67a38.3 38.3 0 0 0-7.348 1.129c0-2.911.005-5.824 0-8.734a35.126 35.126 0 0 0-7.6 2.635v-9.621q-2.578 1.565-5.156 3.143c-1.729-1.041-3.447-2.1-5.174-3.143zm5.179 5.883c1.124-.7 2.265-1.376 3.392-2.074.01 2.273.014 4.549 0 6.823-1.182.715-2.295 1.541-3.4 2.369a41.2 41.2 0 0 0-3.4-2.365c-.026-2.275 0-4.552-.011-6.828 1.143.688 2.275 1.395 3.424 2.075zm-10.955 4.1a19.667 19.667 0 0 1 5.773 2.195q.006 3.513 0 7.026a24.44 24.44 0 0 0-5.769-2.913c0-2.1.007-4.205-.006-6.308zm16.108 2.2a20.115 20.115 0 0 1 5.77-2.21v6.318a24.454 24.454 0 0 0-5.151 2.5 4.813 4.813 0 0 1-.613.38v-6.993zm-8.576 1.171a43.114 43.114 0 0 1 3.394 2.861c1.124-.97 2.224-1.979 3.427-2.861 0 2.395.006 4.79 0 7.184a27.225 27.225 0 0 0-3.406 3.381 27.452 27.452 0 0 0-3.411-3.386v-7.18zm-15 4.105a22.034 22.034 0 0 1 5.637.991v21.558h-5.632q-.018-11.277 0-22.555zm31.189.993a23.189 23.189 0 0 1 4.856-.953 6.121 6.121 0 0 1 .787-.029c-.015 7.514 0 15.028-.007 22.542h-5.632q-.015-10.78 0-21.558zM758.7 289.786V268.87a22.842 22.842 0 0 1 5.769 3.322v16.883c.586 0 1.173.005 1.759 0q-.01-7.651 0-15.3a22.038 22.038 0 0 1 3.355 4.225c.128.082.173-.1.233-.169a22.192 22.192 0 0 1 3.235-4.068c.009 5.109 0 10.21 0 15.314h1.749q.006-8.43 0-16.858a10.246 10.246 0 0 1 1.139-.874 22.391 22.391 0 0 1 4.628-2.467q-.009 10.455 0 20.911-2.131-.006-4.265 0c-.806 1.252-1.611 2.506-2.428 3.754-1.416-.788-2.829-1.586-4.256-2.35-1.4.8-2.82 1.569-4.23 2.35-.817-1.252-1.612-2.513-2.436-3.759-1.419.008-2.836 0-4.255 0zm0 2.261c1.06-.01 2.118 0 3.178-.006.546.851 1.124 1.688 1.635 2.554-1.611.868-3.2 1.778-4.808 2.656v-5.2zm18.7 0h3.183c0 1.737.01 3.474-.007 5.2q-2.406-1.333-4.81-2.669.817-1.269 1.635-2.535zm-10.51 3.818c.9-.535 1.839-1.022 2.751-1.541.919.511 1.839 1.017 2.751 1.527-.913 1.419-1.839 2.834-2.745 4.255-.939-1.4-1.83-2.833-2.759-4.242z" transform="translate(-748 -247)" style="fill:#fff;fill-rule:evenodd"/>
</svg>
