<svg xmlns="http://www.w3.org/2000/svg" width="18" height="12.1" viewBox="0 0 18 12.1">
  <g id="more-details" transform="translate(-3 -5.95)">
    <g id="Group_3011" data-name="Group 3011">
      <g id="Group_3010" data-name="Group 3010">
        <path id="Path_5263" data-name="Path 5263" d="M6.535-11H20a1,1,0,0,0,1-1,1,1,0,0,0-1-1H6.535l3.258-3.257a1.05,1.05,0,0,0,0-1.485,1.05,1.05,0,0,0-1.485,0l-5,5a1.05,1.05,0,0,0,0,1.485l5,5a1.05,1.05,0,0,0,1.485,0,1.05,1.05,0,0,0,0-1.485Z" transform="translate(24) rotate(180)" fill="#134c83"/>
      </g>
    </g>
  </g>
</svg>
