<svg xmlns="http://www.w3.org/2000/svg" width="97.439" height="107.695" viewBox="0 0 97.439 107.695">
  <g id="icons8-c_" data-name="icons8-c++" transform="translate(-5 -3)">
    <path id="Path_71" data-name="Path 71" d="M50.906,3.733a5.761,5.761,0,0,1,5.623,0c8.6,4.828,34.491,19.362,43.1,24.19a5.435,5.435,0,0,1,2.813,4.733V81.035a5.442,5.442,0,0,1-2.813,4.736c-8.6,4.828-34.491,19.362-43.1,24.19a5.761,5.761,0,0,1-5.623,0c-8.6-4.828-34.491-19.362-43.1-24.19A5.44,5.44,0,0,1,5,81.037V32.659a5.442,5.442,0,0,1,2.813-4.736Z" transform="translate(0 0.001)" fill="#00549d" fill-rule="evenodd"/>
    <path id="Path_72" data-name="Path 72" d="M5.78,83.526A4.409,4.409,0,0,1,5,80.579v-48.1A5.4,5.4,0,0,1,7.805,27.77C16.377,22.97,42.178,8.521,50.75,3.718a6.18,6.18,0,0,1,5.823.021c8.572,4.8,34.285,19.126,42.858,23.926a5.366,5.366,0,0,1,1.692,1.477Z" transform="translate(0)" fill="#0086d4" fill-rule="evenodd"/>
    <path id="Path_73" data-name="Path 73" d="M45.9,10A35.9,35.9,0,1,1,10,45.9,35.915,35.915,0,0,1,45.9,10Zm0,17.949A17.949,17.949,0,1,1,27.949,45.9,17.957,17.957,0,0,1,45.9,27.949Z" transform="translate(7.821 10.95)" fill="#fff" fill-rule="evenodd"/>
    <path id="Path_74" data-name="Path 74" d="M72.035,13.205c1.323,1.238,1.3,3.105,1.3,4.574,0,9.731-.082,37.409.023,47.14a5.57,5.57,0,0,1-.828,2.89L23.593,40.885Z" transform="translate(29.083 15.963)" fill="#0075c0" fill-rule="evenodd"/>
    <path id="Path_75" data-name="Path 75" d="M31,21h5.128V36.385H31Zm17.949,0h5.128V36.385H48.949Z" transform="translate(40.668 28.155)" fill="#fff" fill-rule="evenodd"/>
    <path id="Path_76" data-name="Path 76" d="M29,23H44.385v5.128H29Zm17.949,0H62.334v5.128H46.949Z" transform="translate(37.54 31.284)" fill="#fff" fill-rule="evenodd"/>
  </g>
</svg>
