<svg xmlns="http://www.w3.org/2000/svg" width="97.714" height="108" viewBox="0 0 97.714 108">
  <g id="icons8-c-sharp-logo-2" transform="translate(-5 -3)">
    <path id="Path_65" data-name="Path 65" d="M51.036,3.735a5.777,5.777,0,0,1,5.639,0C65.3,8.577,91.264,23.152,99.893,27.994a5.45,5.45,0,0,1,2.821,4.747V81.256a5.457,5.457,0,0,1-2.821,4.749c-8.627,4.842-34.588,19.417-43.218,24.259a5.777,5.777,0,0,1-5.639,0c-8.627-4.842-34.588-19.417-43.218-24.259A5.456,5.456,0,0,1,5,81.258V32.743a5.457,5.457,0,0,1,2.821-4.749Z" transform="translate(0 0.001)" fill="#00c853"/>
    <path id="Path_66" data-name="Path 66" d="M5.782,83.754A4.421,4.421,0,0,1,5,80.8V32.562A5.419,5.419,0,0,1,7.813,27.84c8.6-4.814,34.47-19.3,43.066-24.12a6.2,6.2,0,0,1,5.84.021C65.315,8.555,91.1,22.921,99.7,27.735a5.381,5.381,0,0,1,1.7,1.481Z" transform="translate(0 0)" fill="#69f0ae"/>
    <path id="Path_67" data-name="Path 67" d="M46,10A36,36,0,1,0,82,46,36.007,36.007,0,0,0,46,10Zm0,54A18,18,0,1,1,64,46,18.02,18.02,0,0,1,46,64Z" transform="translate(7.857 11)" fill="#fff"/>
    <path id="Path_68" data-name="Path 68" d="M72.172,13.2c1.327,1.242,1.3,3.114,1.3,4.587,0,9.759-.082,37.515.023,47.273a5.586,5.586,0,0,1-.831,2.9l-49.073-27Z" transform="translate(29.218 16.037)" fill="#00e676"/>
    <path id="Path_69" data-name="Path 69" d="M34,20h2.571V40.571H34Zm7.714,0h2.571V40.571H41.714Z" transform="translate(45.571 26.715)" fill="#fff"/>
    <path id="Path_70" data-name="Path 70" d="M32,29.714H52.571v2.571H32ZM32,22H52.571v2.571H32Z" transform="translate(42.429 29.858)" fill="#fff"/>
  </g>
</svg>
