<svg xmlns="http://www.w3.org/2000/svg" width="102.022" height="136.033" viewBox="0 0 102.022 136.033">
  <g id="java" transform="translate(-9 -3.999)">
    <path id="Path_1" data-name="Path 1" d="M37.642,75.071A104.832,104.832,0,0,1,28.375,56.52C22.608,42.091,63.454,29.052,46.892,4,54.071,21.305,21.125,32,18.064,46.416,15.265,59.673,37.625,75.071,37.642,75.071Z" transform="translate(21.179 0)" fill="#f44336"/>
    <path id="Path_2" data-name="Path 2" d="M23.9,32.205c-.653,8.556,7.58,13.117,7.818,19.367C31.913,56.66,26.8,60.9,26.8,60.9s9.277-1.823,12.171-9.583C42.186,42.7,32.736,36.8,33.708,29.9c.908-6.591,20.51-18.85,20.51-18.85S25.377,12.96,23.9,32.205Z" transform="translate(35.692 16.925)" fill="#f44336"/>
    <g id="Group_2" data-name="Group 2" transform="translate(9 72.405)">
      <path id="Path_3" data-name="Path 3" d="M81.062,27.314c5.965-1.34,10.995,2.459,10.995,6.836,0,9.866-13.674,19.19-13.674,19.19s21.17-2.523,21.17-18.721C99.551,23.906,89.155,21.23,81.062,27.314ZM71.012,35.272s6.6-4.7,8.359-6.468c-16.2,3.438-53.181,3.9-53.181.915,0-2.751,11.926-5.57,11.926-5.57s-26.434-.381-26.434,7.417C11.683,39.693,46.286,40.274,71.012,35.272Z" transform="translate(-2.559 -24.114)" fill="#1565c0"/>
      <path id="Path_4" data-name="Path 4" d="M59.932,31.955c-15.334,5.1-43.577,3.469-35.211-3.377-4.074,0-10.114,3.275-10.114,6.424,0,6.315,30.545,11.192,53.154,1.945Z" transform="translate(4.461 -13.397)" fill="#1565c0"/>
      <path id="Path_5" data-name="Path 5" d="M25.156,32.739c-5.564,0-9.165,3.584-9.165,6.2,0,8.131,33.191,8.951,46.342.7l-8.359-5.55C44.149,38.4,19.47,39,25.156,32.739Z" transform="translate(7.784 -3.408)" fill="#1565c0"/>
      <path id="Path_6" data-name="Path 6" d="M101.776,41.061c0-3.183-3.588-4.683-4.873-5.4,7.577,18.272-75.894,16.854-75.894,6.067,0-2.452,6.145-4.853,11.824-3.717L28,35.157c-11.318-1.775-19,3.2-19,7.213C9,61.084,101.776,60.183,101.776,41.061Z" transform="translate(-9 1.509)" fill="#1565c0"/>
      <path id="Path_7" data-name="Path 7" d="M99.573,38.6c-14.1,13.926-49.851,19-85.8,10.4C49.722,64.314,99.4,55.689,99.573,38.6Z" transform="translate(2.449 10.673)" fill="#1565c0"/>
    </g>
  </g>
</svg>
